<svg xmlns="http://www.w3.org/2000/svg" xmlns:xlink="http://www.w3.org/1999/xlink" contentStyleType="text/css" data-diagram-type="CLASS" height="712px" preserveAspectRatio="none" style="width:2820px;height:712px;background:#FFFFFF;" version="1.1" viewBox="0 0 2820 712" width="2820px" zoomAndPan="magnify"><defs/><g><!--cluster administracion--><g class="cluster" data-entity="administracion" data-source-line="3" data-uid="ent0002" id="cluster_administracion"><rect fill="none" height="99" rx="2.5" ry="2.5" style="stroke:#000000;stroke-width:1.5;" width="170" x="33.14" y="7"/><text fill="#000000" font-family="sans-serif" font-size="14" font-weight="bold" lengthAdjust="spacing" textLength="117.6807" x="59.2997" y="21.9951">administracion</text></g><!--cluster usuarios--><g class="cluster" data-entity="usuarios" data-source-line="7" data-uid="ent0004" id="cluster_usuarios"><rect fill="none" height="207" rx="2.5" ry="2.5" style="stroke:#000000;stroke-width:1.5;" width="433" x="1962.14" y="499"/><text fill="#000000" font-family="sans-serif" font-size="14" font-weight="bold" lengthAdjust="spacing" textLength="67.3682" x="2144.9559" y="513.9951">usuarios</text></g><!--cluster eventos--><g class="cluster" data-entity="eventos" data-source-line="18" data-uid="ent0012" id="cluster_eventos"><rect fill="none" height="330" rx="2.5" ry="2.5" style="stroke:#000000;stroke-width:1.5;" width="419" x="346.14" y="376"/><text fill="#000000" font-family="sans-serif" font-size="14" font-weight="bold" lengthAdjust="spacing" textLength="62.7266" x="524.2767" y="390.9951">eventos</text></g><!--cluster tiquetes--><g class="cluster" data-entity="tiquetes" data-source-line="30" data-uid="ent0020" id="cluster_tiquetes"><rect fill="none" height="222" rx="2.5" ry="2.5" style="stroke:#000000;stroke-width:1.5;" width="710" x="837.14" y="376"/><text fill="#000000" font-family="sans-serif" font-size="14" font-weight="bold" lengthAdjust="spacing" textLength="65.4951" x="1159.3924" y="390.9951">tiquetes</text></g><!--cluster marketplace--><g class="cluster" data-entity="marketplace" data-source-line="48" data-uid="ent0034" id="cluster_marketplace"><rect fill="none" height="222" rx="2.5" ry="2.5" style="stroke:#000000;stroke-width:1.5;" width="304" x="110.14" y="130"/><text fill="#000000" font-family="sans-serif" font-size="14" font-weight="bold" lengthAdjust="spacing" textLength="98.499" x="212.8905" y="144.9951">marketplace</text></g><!--cluster pagos--><g class="cluster" data-entity="pagos" data-source-line="61" data-uid="ent0044" id="cluster_pagos"><rect fill="none" height="222" rx="2.5" ry="2.5" style="stroke:#000000;stroke-width:1.5;" width="196" x="79.14" y="376"/><text fill="#000000" font-family="sans-serif" font-size="14" font-weight="bold" lengthAdjust="spacing" textLength="47.4414" x="153.4193" y="390.9951">pagos</text></g><!--cluster transacciones--><g class="cluster" data-entity="transacciones" data-source-line="68" data-uid="ent0048" id="cluster_transacciones"><rect fill="none" height="222" rx="2.5" ry="2.5" style="stroke:#000000;stroke-width:1.5;" width="889" x="1571.14" y="253"/><text fill="#000000" font-family="sans-serif" font-size="14" font-weight="bold" lengthAdjust="spacing" textLength="109.6006" x="1960.8397" y="267.9951">transacciones</text></g><!--cluster infra_qr--><g class="cluster" data-entity="infra_qr" data-source-line="86" data-uid="ent0062" id="cluster_infra_qr"><rect fill="none" height="222" rx="2.5" ry="2.5" style="stroke:#000000;stroke-width:1.5;" width="208" x="2606.14" y="253"/><text fill="#000000" font-family="sans-serif" font-size="14" font-weight="bold" lengthAdjust="spacing" textLength="61.1338" x="2679.5731" y="267.9951">infra_qr</text></g><!--cluster persistencia--><g class="cluster" data-entity="persistencia" data-source-line="94" data-uid="ent0067" id="cluster_persistencia"><rect fill="none" height="222" rx="2.5" ry="2.5" style="stroke:#000000;stroke-width:1.5;" width="321" x="438.14" y="7"/><text fill="#000000" font-family="sans-serif" font-size="14" font-weight="bold" lengthAdjust="spacing" textLength="96.585" x="550.3475" y="21.9951">persistencia</text></g><!--class Administracion--><g class="entity" data-entity="Administracion" data-source-line="4" data-uid="ent0003" id="entity_Administracion"><rect fill="#F1F1F1" height="48" rx="2.5" ry="2.5" style="stroke:#181818;stroke-width:0.5;" width="136.8975" x="49.64" y="42"/><ellipse cx="64.64" cy="58" fill="#ADD1B2" rx="11" ry="11" style="stroke:#181818;stroke-width:1;"/><path d="M67.6088,63.6406 Q67.0306,63.9375 66.39,64.0781 Q65.7494,64.2344 65.0463,64.2344 Q62.5463,64.2344 61.2181,62.5938 Q59.9056,60.9375 59.9056,57.8125 Q59.9056,54.6875 61.2181,53.0313 Q62.5463,51.375 65.0463,51.375 Q65.7494,51.375 66.39,51.5313 Q67.0463,51.6875 67.6088,51.9844 L67.6088,54.7031 Q66.9838,54.125 66.39,53.8594 Q65.7963,53.5781 65.1713,53.5781 Q63.8275,53.5781 63.14,54.6563 Q62.4525,55.7188 62.4525,57.8125 Q62.4525,59.9063 63.14,60.9844 Q63.8275,62.0469 65.1713,62.0469 Q65.7963,62.0469 66.39,61.7813 Q66.9838,61.5 67.6088,60.9219 L67.6088,63.6406 Z " fill="#000000"/><text fill="#000000" font-family="sans-serif" font-size="14" lengthAdjust="spacing" textLength="104.8975" x="78.64" y="62.8467">Administracion</text><line style="stroke:#181818;stroke-width:0.5;" x1="50.64" x2="185.5375" y1="74" y2="74"/><line style="stroke:#181818;stroke-width:0.5;" x1="50.64" x2="185.5375" y1="82" y2="82"/></g><!--class Usuario--><g class="entity" data-entity="Usuario" data-source-line="8" data-uid="ent0005" id="entity_Usuario"><rect fill="#F1F1F1" height="48" rx="2.5" ry="2.5" style="stroke:#181818;stroke-width:0.5;" width="85.2041" x="2154.64" y="534"/><ellipse cx="2169.64" cy="550" fill="#ADD1B2" rx="11" ry="11" style="stroke:#181818;stroke-width:1;"/><path d="M2172.6088,555.6406 Q2172.0306,555.9375 2171.39,556.0781 Q2170.7494,556.2344 2170.0463,556.2344 Q2167.5463,556.2344 2166.2181,554.5938 Q2164.9056,552.9375 2164.9056,549.8125 Q2164.9056,546.6875 2166.2181,545.0313 Q2167.5463,543.375 2170.0463,543.375 Q2170.7494,543.375 2171.39,543.5313 Q2172.0463,543.6875 2172.6088,543.9844 L2172.6088,546.7031 Q2171.9838,546.125 2171.39,545.8594 Q2170.7963,545.5781 2170.1713,545.5781 Q2168.8275,545.5781 2168.14,546.6563 Q2167.4525,547.7188 2167.4525,549.8125 Q2167.4525,551.9063 2168.14,552.9844 Q2168.8275,554.0469 2170.1713,554.0469 Q2170.7963,554.0469 2171.39,553.7813 Q2171.9838,553.5 2172.6088,552.9219 L2172.6088,555.6406 Z " fill="#000000"/><text fill="#000000" font-family="sans-serif" font-size="14" lengthAdjust="spacing" textLength="53.2041" x="2183.64" y="554.8467">Usuario</text><line style="stroke:#181818;stroke-width:0.5;" x1="2155.64" x2="2238.8441" y1="566" y2="566"/><line style="stroke:#181818;stroke-width:0.5;" x1="2155.64" x2="2238.8441" y1="574" y2="574"/></g><!--class Administrador--><g class="entity" data-entity="Administrador" data-source-line="9" data-uid="ent0006" id="entity_Administrador"><rect fill="#F1F1F1" height="48" rx="2.5" ry="2.5" style="stroke:#181818;stroke-width:0.5;" width="131.0801" x="2131.64" y="642"/><ellipse cx="2146.64" cy="658" fill="#ADD1B2" rx="11" ry="11" style="stroke:#181818;stroke-width:1;"/><path d="M2149.6088,663.6406 Q2149.0306,663.9375 2148.39,664.0781 Q2147.7494,664.2344 2147.0463,664.2344 Q2144.5463,664.2344 2143.2181,662.5938 Q2141.9056,660.9375 2141.9056,657.8125 Q2141.9056,654.6875 2143.2181,653.0313 Q2144.5463,651.375 2147.0463,651.375 Q2147.7494,651.375 2148.39,651.5313 Q2149.0463,651.6875 2149.6088,651.9844 L2149.6088,654.7031 Q2148.9838,654.125 2148.39,653.8594 Q2147.7963,653.5781 2147.1713,653.5781 Q2145.8275,653.5781 2145.14,654.6563 Q2144.4525,655.7188 2144.4525,657.8125 Q2144.4525,659.9063 2145.14,660.9844 Q2145.8275,662.0469 2147.1713,662.0469 Q2147.7963,662.0469 2148.39,661.7813 Q2148.9838,661.5 2149.6088,660.9219 L2149.6088,663.6406 Z " fill="#000000"/><text fill="#000000" font-family="sans-serif" font-size="14" lengthAdjust="spacing" textLength="99.0801" x="2160.64" y="662.8467">Administrador</text><line style="stroke:#181818;stroke-width:0.5;" x1="2132.64" x2="2261.7201" y1="674" y2="674"/><line style="stroke:#181818;stroke-width:0.5;" x1="2132.64" x2="2261.7201" y1="682" y2="682"/></g><!--class Cliente--><g class="entity" data-entity="Cliente" data-source-line="10" data-uid="ent0007" id="entity_Cliente"><rect fill="#F1F1F1" height="48" rx="2.5" ry="2.5" style="stroke:#181818;stroke-width:0.5;" width="81.1436" x="2297.64" y="642"/><ellipse cx="2312.64" cy="658" fill="#ADD1B2" rx="11" ry="11" style="stroke:#181818;stroke-width:1;"/><path d="M2315.6088,663.6406 Q2315.0306,663.9375 2314.39,664.0781 Q2313.7494,664.2344 2313.0463,664.2344 Q2310.5463,664.2344 2309.2181,662.5938 Q2307.9056,660.9375 2307.9056,657.8125 Q2307.9056,654.6875 2309.2181,653.0313 Q2310.5463,651.375 2313.0463,651.375 Q2313.7494,651.375 2314.39,651.5313 Q2315.0463,651.6875 2315.6088,651.9844 L2315.6088,654.7031 Q2314.9838,654.125 2314.39,653.8594 Q2313.7963,653.5781 2313.1713,653.5781 Q2311.8275,653.5781 2311.14,654.6563 Q2310.4525,655.7188 2310.4525,657.8125 Q2310.4525,659.9063 2311.14,660.9844 Q2311.8275,662.0469 2313.1713,662.0469 Q2313.7963,662.0469 2314.39,661.7813 Q2314.9838,661.5 2315.6088,660.9219 L2315.6088,663.6406 Z " fill="#000000"/><text fill="#000000" font-family="sans-serif" font-size="14" lengthAdjust="spacing" textLength="49.1436" x="2326.64" y="662.8467">Cliente</text><line style="stroke:#181818;stroke-width:0.5;" x1="2298.64" x2="2377.7836" y1="674" y2="674"/><line style="stroke:#181818;stroke-width:0.5;" x1="2298.64" x2="2377.7836" y1="682" y2="682"/></g><!--class Organizador--><g class="entity" data-entity="Organizador" data-source-line="11" data-uid="ent0008" id="entity_Organizador"><rect fill="#F1F1F1" height="48" rx="2.5" ry="2.5" style="stroke:#181818;stroke-width:0.5;" width="118.1396" x="1978.14" y="642"/><ellipse cx="1993.14" cy="658" fill="#ADD1B2" rx="11" ry="11" style="stroke:#181818;stroke-width:1;"/><path d="M1996.1088,663.6406 Q1995.5306,663.9375 1994.89,664.0781 Q1994.2494,664.2344 1993.5463,664.2344 Q1991.0463,664.2344 1989.7181,662.5938 Q1988.4056,660.9375 1988.4056,657.8125 Q1988.4056,654.6875 1989.7181,653.0313 Q1991.0463,651.375 1993.5463,651.375 Q1994.2494,651.375 1994.89,651.5313 Q1995.5463,651.6875 1996.1088,651.9844 L1996.1088,654.7031 Q1995.4838,654.125 1994.89,653.8594 Q1994.2963,653.5781 1993.6713,653.5781 Q1992.3275,653.5781 1991.64,654.6563 Q1990.9525,655.7188 1990.9525,657.8125 Q1990.9525,659.9063 1991.64,660.9844 Q1992.3275,662.0469 1993.6713,662.0469 Q1994.2963,662.0469 1994.89,661.7813 Q1995.4838,661.5 1996.1088,660.9219 L1996.1088,663.6406 Z " fill="#000000"/><text fill="#000000" font-family="sans-serif" font-size="14" lengthAdjust="spacing" textLength="86.1396" x="2007.14" y="662.8467">Organizador</text><line style="stroke:#181818;stroke-width:0.5;" x1="1979.14" x2="2095.2796" y1="674" y2="674"/><line style="stroke:#181818;stroke-width:0.5;" x1="1979.14" x2="2095.2796" y1="682" y2="682"/></g><!--class TipoEvento--><g class="entity" data-entity="TipoEvento" data-source-line="19" data-uid="ent0013" id="entity_TipoEvento"><rect fill="#F1F1F1" height="48" rx="2.5" ry="2.5" style="stroke:#181818;stroke-width:0.5;" width="110.5654" x="638.64" y="411"/><ellipse cx="653.64" cy="427" fill="#EB937F" rx="11" ry="11" style="stroke:#181818;stroke-width:1;"/><path d="M657.7494,433 L650.0306,433 L650.0306,420.6094 L657.7494,420.6094 L657.7494,422.7656 L652.4838,422.7656 L652.4838,425.4375 L657.2494,425.4375 L657.2494,427.5938 L652.4838,427.5938 L652.4838,430.8438 L657.7494,430.8438 L657.7494,433 Z " fill="#000000"/><text fill="#000000" font-family="sans-serif" font-size="14" lengthAdjust="spacing" textLength="78.5654" x="667.64" y="431.8467">TipoEvento</text><line style="stroke:#181818;stroke-width:0.5;" x1="639.64" x2="748.2054" y1="443" y2="443"/><line style="stroke:#181818;stroke-width:0.5;" x1="639.64" x2="748.2054" y1="451" y2="451"/></g><!--class EstadoEvento--><g class="entity" data-entity="EstadoEvento" data-source-line="20" data-uid="ent0014" id="entity_EstadoEvento"><rect fill="#F1F1F1" height="48" rx="2.5" ry="2.5" style="stroke:#181818;stroke-width:0.5;" width="128.332" x="475.14" y="411"/><ellipse cx="490.14" cy="427" fill="#EB937F" rx="11" ry="11" style="stroke:#181818;stroke-width:1;"/><path d="M494.2494,433 L486.5306,433 L486.5306,420.6094 L494.2494,420.6094 L494.2494,422.7656 L488.9838,422.7656 L488.9838,425.4375 L493.7494,425.4375 L493.7494,427.5938 L488.9838,427.5938 L488.9838,430.8438 L494.2494,430.8438 L494.2494,433 Z " fill="#000000"/><text fill="#000000" font-family="sans-serif" font-size="14" lengthAdjust="spacing" textLength="96.332" x="504.14" y="431.8467">EstadoEvento</text><line style="stroke:#181818;stroke-width:0.5;" x1="476.14" x2="602.472" y1="443" y2="443"/><line style="stroke:#181818;stroke-width:0.5;" x1="476.14" x2="602.472" y1="451" y2="451"/></g><!--class Venue--><g class="entity" data-entity="Venue" data-source-line="22" data-uid="ent0015" id="entity_Venue"><rect fill="#F1F1F1" height="48" rx="2.5" ry="2.5" style="stroke:#181818;stroke-width:0.5;" width="76.5498" x="362.64" y="411"/><ellipse cx="377.64" cy="427" fill="#ADD1B2" rx="11" ry="11" style="stroke:#181818;stroke-width:1;"/><path d="M380.6088,432.6406 Q380.0306,432.9375 379.39,433.0781 Q378.7494,433.2344 378.0463,433.2344 Q375.5463,433.2344 374.2181,431.5938 Q372.9056,429.9375 372.9056,426.8125 Q372.9056,423.6875 374.2181,422.0313 Q375.5463,420.375 378.0463,420.375 Q378.7494,420.375 379.39,420.5313 Q380.0463,420.6875 380.6088,420.9844 L380.6088,423.7031 Q379.9838,423.125 379.39,422.8594 Q378.7963,422.5781 378.1713,422.5781 Q376.8275,422.5781 376.14,423.6563 Q375.4525,424.7188 375.4525,426.8125 Q375.4525,428.9063 376.14,429.9844 Q376.8275,431.0469 378.1713,431.0469 Q378.7963,431.0469 379.39,430.7813 Q379.9838,430.5 380.6088,429.9219 L380.6088,432.6406 Z " fill="#000000"/><text fill="#000000" font-family="sans-serif" font-size="14" lengthAdjust="spacing" textLength="44.5498" x="391.64" y="431.8467">Venue</text><line style="stroke:#181818;stroke-width:0.5;" x1="363.64" x2="438.1898" y1="443" y2="443"/><line style="stroke:#181818;stroke-width:0.5;" x1="363.64" x2="438.1898" y1="451" y2="451"/></g><!--class Evento--><g class="entity" data-entity="Evento" data-source-line="23" data-uid="ent0016" id="entity_Evento"><rect fill="#F1F1F1" height="48" rx="2.5" ry="2.5" style="stroke:#181818;stroke-width:0.5;" width="80.6719" x="660.64" y="534"/><ellipse cx="675.64" cy="550" fill="#ADD1B2" rx="11" ry="11" style="stroke:#181818;stroke-width:1;"/><path d="M678.6088,555.6406 Q678.0306,555.9375 677.39,556.0781 Q676.7494,556.2344 676.0463,556.2344 Q673.5463,556.2344 672.2181,554.5938 Q670.9056,552.9375 670.9056,549.8125 Q670.9056,546.6875 672.2181,545.0313 Q673.5463,543.375 676.0463,543.375 Q676.7494,543.375 677.39,543.5313 Q678.0463,543.6875 678.6088,543.9844 L678.6088,546.7031 Q677.9838,546.125 677.39,545.8594 Q676.7963,545.5781 676.1713,545.5781 Q674.8275,545.5781 674.14,546.6563 Q673.4525,547.7188 673.4525,549.8125 Q673.4525,551.9063 674.14,552.9844 Q674.8275,554.0469 676.1713,554.0469 Q676.7963,554.0469 677.39,553.7813 Q677.9838,553.5 678.6088,552.9219 L678.6088,555.6406 Z " fill="#000000"/><text fill="#000000" font-family="sans-serif" font-size="14" lengthAdjust="spacing" textLength="48.6719" x="689.64" y="554.8467">Evento</text><line style="stroke:#181818;stroke-width:0.5;" x1="661.64" x2="740.3119" y1="566" y2="566"/><line style="stroke:#181818;stroke-width:0.5;" x1="661.64" x2="740.3119" y1="574" y2="574"/></g><!--class Localidad--><g class="entity" data-entity="Localidad" data-source-line="24" data-uid="ent0017" id="entity_Localidad"><rect fill="#F1F1F1" height="48" rx="2.5" ry="2.5" style="stroke:#181818;stroke-width:0.5;" width="98.7734" x="649.64" y="642"/><ellipse cx="664.64" cy="658" fill="#ADD1B2" rx="11" ry="11" style="stroke:#181818;stroke-width:1;"/><path d="M667.6088,663.6406 Q667.0306,663.9375 666.39,664.0781 Q665.7494,664.2344 665.0463,664.2344 Q662.5463,664.2344 661.2181,662.5938 Q659.9056,660.9375 659.9056,657.8125 Q659.9056,654.6875 661.2181,653.0313 Q662.5463,651.375 665.0463,651.375 Q665.7494,651.375 666.39,651.5313 Q667.0463,651.6875 667.6088,651.9844 L667.6088,654.7031 Q666.9838,654.125 666.39,653.8594 Q665.7963,653.5781 665.1713,653.5781 Q663.8275,653.5781 663.14,654.6563 Q662.4525,655.7188 662.4525,657.8125 Q662.4525,659.9063 663.14,660.9844 Q663.8275,662.0469 665.1713,662.0469 Q665.7963,662.0469 666.39,661.7813 Q666.9838,661.5 667.6088,660.9219 L667.6088,663.6406 Z " fill="#000000"/><text fill="#000000" font-family="sans-serif" font-size="14" lengthAdjust="spacing" textLength="66.7734" x="678.64" y="662.8467">Localidad</text><line style="stroke:#181818;stroke-width:0.5;" x1="650.64" x2="747.4134" y1="674" y2="674"/><line style="stroke:#181818;stroke-width:0.5;" x1="650.64" x2="747.4134" y1="682" y2="682"/></g><!--class EstadoTiquete--><g class="entity" data-entity="EstadoTiquete" data-source-line="31" data-uid="ent0021" id="entity_EstadoTiquete"><rect fill="#F1F1F1" height="48" rx="2.5" ry="2.5" style="stroke:#181818;stroke-width:0.5;" width="132.5771" x="1291.64" y="411"/><ellipse cx="1306.64" cy="427" fill="#EB937F" rx="11" ry="11" style="stroke:#181818;stroke-width:1;"/><path d="M1310.7494,433 L1303.0306,433 L1303.0306,420.6094 L1310.7494,420.6094 L1310.7494,422.7656 L1305.4838,422.7656 L1305.4838,425.4375 L1310.2494,425.4375 L1310.2494,427.5938 L1305.4838,427.5938 L1305.4838,430.8438 L1310.7494,430.8438 L1310.7494,433 Z " fill="#000000"/><text fill="#000000" font-family="sans-serif" font-size="14" lengthAdjust="spacing" textLength="100.5771" x="1320.64" y="431.8467">EstadoTiquete</text><line style="stroke:#181818;stroke-width:0.5;" x1="1292.64" x2="1423.2171" y1="443" y2="443"/><line style="stroke:#181818;stroke-width:0.5;" x1="1292.64" x2="1423.2171" y1="451" y2="451"/></g><!--class Tiquete--><g class="entity" data-entity="Tiquete" data-source-line="32" data-uid="ent0022" id="entity_Tiquete"><rect fill="#F1F1F1" height="48" rx="2.5" ry="2.5" style="stroke:#181818;stroke-width:0.5;" width="84.917" x="1066.64" y="411"/><ellipse cx="1081.64" cy="427" fill="#A9DCDF" rx="11" ry="11" style="stroke:#181818;stroke-width:1;"/><path d="M1081.7494,422.3438 L1080.5931,427.4219 L1082.9213,427.4219 L1081.7494,422.3438 Z M1080.265,420.1094 L1083.2494,420.1094 L1086.6088,432.5 L1084.1556,432.5 L1083.39,429.4375 L1080.1088,429.4375 L1079.3588,432.5 L1076.9213,432.5 L1080.265,420.1094 Z " fill="#000000"/><text fill="#000000" font-family="sans-serif" font-size="14" font-style="italic" lengthAdjust="spacing" textLength="52.917" x="1095.64" y="431.8467">Tiquete</text><line style="stroke:#181818;stroke-width:0.5;" x1="1067.64" x2="1150.557" y1="443" y2="443"/><line style="stroke:#181818;stroke-width:0.5;" x1="1067.64" x2="1150.557" y1="451" y2="451"/></g><!--class TiqueteSimple--><g class="entity" data-entity="TiqueteSimple" data-source-line="33" data-uid="ent0023" id="entity_TiqueteSimple"><rect fill="#F1F1F1" height="48" rx="2.5" ry="2.5" style="stroke:#181818;stroke-width:0.5;" width="132.7207" x="1397.64" y="534"/><ellipse cx="1412.64" cy="550" fill="#ADD1B2" rx="11" ry="11" style="stroke:#181818;stroke-width:1;"/><path d="M1415.6088,555.6406 Q1415.0306,555.9375 1414.39,556.0781 Q1413.7494,556.2344 1413.0463,556.2344 Q1410.5463,556.2344 1409.2181,554.5938 Q1407.9056,552.9375 1407.9056,549.8125 Q1407.9056,546.6875 1409.2181,545.0313 Q1410.5463,543.375 1413.0463,543.375 Q1413.7494,543.375 1414.39,543.5313 Q1415.0463,543.6875 1415.6088,543.9844 L1415.6088,546.7031 Q1414.9838,546.125 1414.39,545.8594 Q1413.7963,545.5781 1413.1713,545.5781 Q1411.8275,545.5781 1411.14,546.6563 Q1410.4525,547.7188 1410.4525,549.8125 Q1410.4525,551.9063 1411.14,552.9844 Q1411.8275,554.0469 1413.1713,554.0469 Q1413.7963,554.0469 1414.39,553.7813 Q1414.9838,553.5 1415.6088,552.9219 L1415.6088,555.6406 Z " fill="#000000"/><text fill="#000000" font-family="sans-serif" font-size="14" lengthAdjust="spacing" textLength="100.7207" x="1426.64" y="554.8467">TiqueteSimple</text><line style="stroke:#181818;stroke-width:0.5;" x1="1398.64" x2="1529.3607" y1="566" y2="566"/><line style="stroke:#181818;stroke-width:0.5;" x1="1398.64" x2="1529.3607" y1="574" y2="574"/></g><!--class TiqueteMultiple--><g class="entity" data-entity="TiqueteMultiple" data-source-line="34" data-uid="ent0024" id="entity_TiqueteMultiple"><rect fill="#F1F1F1" height="48" rx="2.5" ry="2.5" style="stroke:#181818;stroke-width:0.5;" width="140.5273" x="853.64" y="534"/><ellipse cx="868.64" cy="550" fill="#ADD1B2" rx="11" ry="11" style="stroke:#181818;stroke-width:1;"/><path d="M871.6088,555.6406 Q871.0306,555.9375 870.39,556.0781 Q869.7494,556.2344 869.0463,556.2344 Q866.5463,556.2344 865.2181,554.5938 Q863.9056,552.9375 863.9056,549.8125 Q863.9056,546.6875 865.2181,545.0313 Q866.5463,543.375 869.0463,543.375 Q869.7494,543.375 870.39,543.5313 Q871.0463,543.6875 871.6088,543.9844 L871.6088,546.7031 Q870.9838,546.125 870.39,545.8594 Q869.7963,545.5781 869.1713,545.5781 Q867.8275,545.5781 867.14,546.6563 Q866.4525,547.7188 866.4525,549.8125 Q866.4525,551.9063 867.14,552.9844 Q867.8275,554.0469 869.1713,554.0469 Q869.7963,554.0469 870.39,553.7813 Q870.9838,553.5 871.6088,552.9219 L871.6088,555.6406 Z " fill="#000000"/><text fill="#000000" font-family="sans-serif" font-size="14" lengthAdjust="spacing" textLength="108.5273" x="882.64" y="554.8467">TiqueteMultiple</text><line style="stroke:#181818;stroke-width:0.5;" x1="854.64" x2="993.1673" y1="566" y2="566"/><line style="stroke:#181818;stroke-width:0.5;" x1="854.64" x2="993.1673" y1="574" y2="574"/></g><!--class TiqueteNumerado--><g class="entity" data-entity="TiqueteNumerado" data-source-line="35" data-uid="ent0025" id="entity_TiqueteNumerado"><rect fill="#F1F1F1" height="48" rx="2.5" ry="2.5" style="stroke:#181818;stroke-width:0.5;" width="158.3008" x="1030.14" y="534"/><ellipse cx="1045.14" cy="550" fill="#ADD1B2" rx="11" ry="11" style="stroke:#181818;stroke-width:1;"/><path d="M1048.1088,555.6406 Q1047.5306,555.9375 1046.89,556.0781 Q1046.2494,556.2344 1045.5463,556.2344 Q1043.0463,556.2344 1041.7181,554.5938 Q1040.4056,552.9375 1040.4056,549.8125 Q1040.4056,546.6875 1041.7181,545.0313 Q1043.0463,543.375 1045.5463,543.375 Q1046.2494,543.375 1046.89,543.5313 Q1047.5463,543.6875 1048.1088,543.9844 L1048.1088,546.7031 Q1047.4838,546.125 1046.89,545.8594 Q1046.2963,545.5781 1045.6713,545.5781 Q1044.3275,545.5781 1043.64,546.6563 Q1042.9525,547.7188 1042.9525,549.8125 Q1042.9525,551.9063 1043.64,552.9844 Q1044.3275,554.0469 1045.6713,554.0469 Q1046.2963,554.0469 1046.89,553.7813 Q1047.4838,553.5 1048.1088,552.9219 L1048.1088,555.6406 Z " fill="#000000"/><text fill="#000000" font-family="sans-serif" font-size="14" lengthAdjust="spacing" textLength="126.3008" x="1059.14" y="554.8467">TiqueteNumerado</text><line style="stroke:#181818;stroke-width:0.5;" x1="1031.14" x2="1187.4408" y1="566" y2="566"/><line style="stroke:#181818;stroke-width:0.5;" x1="1031.14" x2="1187.4408" y1="574" y2="574"/></g><!--class PaqueteDeluxe--><g class="entity" data-entity="PaqueteDeluxe" data-source-line="36" data-uid="ent0026" id="entity_PaqueteDeluxe"><rect fill="#F1F1F1" height="48" rx="2.5" ry="2.5" style="stroke:#181818;stroke-width:0.5;" width="138.5518" x="1223.64" y="534"/><ellipse cx="1238.64" cy="550" fill="#ADD1B2" rx="11" ry="11" style="stroke:#181818;stroke-width:1;"/><path d="M1241.6088,555.6406 Q1241.0306,555.9375 1240.39,556.0781 Q1239.7494,556.2344 1239.0463,556.2344 Q1236.5463,556.2344 1235.2181,554.5938 Q1233.9056,552.9375 1233.9056,549.8125 Q1233.9056,546.6875 1235.2181,545.0313 Q1236.5463,543.375 1239.0463,543.375 Q1239.7494,543.375 1240.39,543.5313 Q1241.0463,543.6875 1241.6088,543.9844 L1241.6088,546.7031 Q1240.9838,546.125 1240.39,545.8594 Q1239.7963,545.5781 1239.1713,545.5781 Q1237.8275,545.5781 1237.14,546.6563 Q1236.4525,547.7188 1236.4525,549.8125 Q1236.4525,551.9063 1237.14,552.9844 Q1237.8275,554.0469 1239.1713,554.0469 Q1239.7963,554.0469 1240.39,553.7813 Q1240.9838,553.5 1241.6088,552.9219 L1241.6088,555.6406 Z " fill="#000000"/><text fill="#000000" font-family="sans-serif" font-size="14" lengthAdjust="spacing" textLength="106.5518" x="1252.64" y="554.8467">PaqueteDeluxe</text><line style="stroke:#181818;stroke-width:0.5;" x1="1224.64" x2="1361.1918" y1="566" y2="566"/><line style="stroke:#181818;stroke-width:0.5;" x1="1224.64" x2="1361.1918" y1="574" y2="574"/></g><!--class Marketplace--><g class="entity" data-entity="Marketplace" data-source-line="49" data-uid="ent0035" id="entity_Marketplace"><rect fill="#F1F1F1" height="48" rx="2.5" ry="2.5" style="stroke:#181818;stroke-width:0.5;" width="118.29" x="126.14" y="288"/><ellipse cx="141.14" cy="304" fill="#ADD1B2" rx="11" ry="11" style="stroke:#181818;stroke-width:1;"/><path d="M144.1088,309.6406 Q143.5306,309.9375 142.89,310.0781 Q142.2494,310.2344 141.5463,310.2344 Q139.0463,310.2344 137.7181,308.5938 Q136.4056,306.9375 136.4056,303.8125 Q136.4056,300.6875 137.7181,299.0313 Q139.0463,297.375 141.5463,297.375 Q142.2494,297.375 142.89,297.5313 Q143.5463,297.6875 144.1088,297.9844 L144.1088,300.7031 Q143.4838,300.125 142.89,299.8594 Q142.2963,299.5781 141.6713,299.5781 Q140.3275,299.5781 139.64,300.6563 Q138.9525,301.7188 138.9525,303.8125 Q138.9525,305.9063 139.64,306.9844 Q140.3275,308.0469 141.6713,308.0469 Q142.2963,308.0469 142.89,307.7813 Q143.4838,307.5 144.1088,306.9219 L144.1088,309.6406 Z " fill="#000000"/><text fill="#000000" font-family="sans-serif" font-size="14" lengthAdjust="spacing" textLength="86.29" x="155.14" y="308.8467">Marketplace</text><line style="stroke:#181818;stroke-width:0.5;" x1="127.14" x2="243.43" y1="320" y2="320"/><line style="stroke:#181818;stroke-width:0.5;" x1="127.14" x2="243.43" y1="328" y2="328"/></g><!--class Oferta--><g class="entity" data-entity="Oferta" data-source-line="50" data-uid="ent0036" id="entity_Oferta"><rect fill="#F1F1F1" height="48" rx="2.5" ry="2.5" style="stroke:#181818;stroke-width:0.5;" width="76.3857" x="279.14" y="288"/><ellipse cx="294.14" cy="304" fill="#ADD1B2" rx="11" ry="11" style="stroke:#181818;stroke-width:1;"/><path d="M297.1088,309.6406 Q296.5306,309.9375 295.89,310.0781 Q295.2494,310.2344 294.5463,310.2344 Q292.0463,310.2344 290.7181,308.5938 Q289.4056,306.9375 289.4056,303.8125 Q289.4056,300.6875 290.7181,299.0313 Q292.0463,297.375 294.5463,297.375 Q295.2494,297.375 295.89,297.5313 Q296.5463,297.6875 297.1088,297.9844 L297.1088,300.7031 Q296.4838,300.125 295.89,299.8594 Q295.2963,299.5781 294.6713,299.5781 Q293.3275,299.5781 292.64,300.6563 Q291.9525,301.7188 291.9525,303.8125 Q291.9525,305.9063 292.64,306.9844 Q293.3275,308.0469 294.6713,308.0469 Q295.2963,308.0469 295.89,307.7813 Q296.4838,307.5 297.1088,306.9219 L297.1088,309.6406 Z " fill="#000000"/><text fill="#000000" font-family="sans-serif" font-size="14" lengthAdjust="spacing" textLength="44.3857" x="308.14" y="308.8467">Oferta</text><line style="stroke:#181818;stroke-width:0.5;" x1="280.14" x2="354.5257" y1="320" y2="320"/><line style="stroke:#181818;stroke-width:0.5;" x1="280.14" x2="354.5257" y1="328" y2="328"/></g><!--class Contraoferta--><g class="entity" data-entity="Contraoferta" data-source-line="51" data-uid="ent0037" id="entity_Contraoferta"><rect fill="#F1F1F1" height="48" rx="2.5" ry="2.5" style="stroke:#181818;stroke-width:0.5;" width="120.9697" x="276.64" y="165"/><ellipse cx="291.64" cy="181" fill="#ADD1B2" rx="11" ry="11" style="stroke:#181818;stroke-width:1;"/><path d="M294.6088,186.6406 Q294.0306,186.9375 293.39,187.0781 Q292.7494,187.2344 292.0463,187.2344 Q289.5463,187.2344 288.2181,185.5938 Q286.9056,183.9375 286.9056,180.8125 Q286.9056,177.6875 288.2181,176.0313 Q289.5463,174.375 292.0463,174.375 Q292.7494,174.375 293.39,174.5313 Q294.0463,174.6875 294.6088,174.9844 L294.6088,177.7031 Q293.9838,177.125 293.39,176.8594 Q292.7963,176.5781 292.1713,176.5781 Q290.8275,176.5781 290.14,177.6563 Q289.4525,178.7188 289.4525,180.8125 Q289.4525,182.9063 290.14,183.9844 Q290.8275,185.0469 292.1713,185.0469 Q292.7963,185.0469 293.39,184.7813 Q293.9838,184.5 294.6088,183.9219 L294.6088,186.6406 Z " fill="#000000"/><text fill="#000000" font-family="sans-serif" font-size="14" lengthAdjust="spacing" textLength="88.9697" x="305.64" y="185.8467">Contraoferta</text><line style="stroke:#181818;stroke-width:0.5;" x1="277.64" x2="396.6097" y1="197" y2="197"/><line style="stroke:#181818;stroke-width:0.5;" x1="277.64" x2="396.6097" y1="205" y2="205"/></g><!--class LogRegistro--><g class="entity" data-entity="LogRegistro" data-source-line="52" data-uid="ent0038" id="entity_LogRegistro"><rect fill="#F1F1F1" height="48" rx="2.5" ry="2.5" style="stroke:#181818;stroke-width:0.5;" width="115.4736" x="126.64" y="165"/><ellipse cx="141.64" cy="181" fill="#ADD1B2" rx="11" ry="11" style="stroke:#181818;stroke-width:1;"/><path d="M144.6088,186.6406 Q144.0306,186.9375 143.39,187.0781 Q142.7494,187.2344 142.0463,187.2344 Q139.5463,187.2344 138.2181,185.5938 Q136.9056,183.9375 136.9056,180.8125 Q136.9056,177.6875 138.2181,176.0313 Q139.5463,174.375 142.0463,174.375 Q142.7494,174.375 143.39,174.5313 Q144.0463,174.6875 144.6088,174.9844 L144.6088,177.7031 Q143.9838,177.125 143.39,176.8594 Q142.7963,176.5781 142.1713,176.5781 Q140.8275,176.5781 140.14,177.6563 Q139.4525,178.7188 139.4525,180.8125 Q139.4525,182.9063 140.14,183.9844 Q140.8275,185.0469 142.1713,185.0469 Q142.7963,185.0469 143.39,184.7813 Q143.9838,184.5 144.6088,183.9219 L144.6088,186.6406 Z " fill="#000000"/><text fill="#000000" font-family="sans-serif" font-size="14" lengthAdjust="spacing" textLength="83.4736" x="155.64" y="185.8467">LogRegistro</text><line style="stroke:#181818;stroke-width:0.5;" x1="127.64" x2="241.1136" y1="197" y2="197"/><line style="stroke:#181818;stroke-width:0.5;" x1="127.64" x2="241.1136" y1="205" y2="205"/></g><!--class PasarelaPago--><g class="entity" data-entity="PasarelaPago" data-source-line="62" data-uid="ent0045" id="entity_PasarelaPago"><rect fill="#F1F1F1" height="48" rx="2.5" ry="2.5" style="stroke:#181818;stroke-width:0.5;" width="126.2061" x="122.14" y="411"/><ellipse cx="137.14" cy="427" fill="#B4A7E5" rx="11" ry="11" style="stroke:#181818;stroke-width:1;"/><path d="M133.0619,422.7656 L133.0619,420.6094 L140.4525,420.6094 L140.4525,422.7656 L137.9838,422.7656 L137.9838,430.8438 L140.4525,430.8438 L140.4525,433 L133.0619,433 L133.0619,430.8438 L135.5306,430.8438 L135.5306,422.7656 L133.0619,422.7656 Z " fill="#000000"/><text fill="#000000" font-family="sans-serif" font-size="14" font-style="italic" lengthAdjust="spacing" textLength="94.2061" x="151.14" y="431.8467">PasarelaPago</text><line style="stroke:#181818;stroke-width:0.5;" x1="123.14" x2="247.3461" y1="443" y2="443"/><line style="stroke:#181818;stroke-width:0.5;" x1="123.14" x2="247.3461" y1="451" y2="451"/></g><!--class PasarelaPagoMock--><g class="entity" data-entity="PasarelaPagoMock" data-source-line="63" data-uid="ent0046" id="entity_PasarelaPagoMock"><rect fill="#F1F1F1" height="48" rx="2.5" ry="2.5" style="stroke:#181818;stroke-width:0.5;" width="162.6553" x="95.64" y="534"/><ellipse cx="110.64" cy="550" fill="#ADD1B2" rx="11" ry="11" style="stroke:#181818;stroke-width:1;"/><path d="M113.6088,555.6406 Q113.0306,555.9375 112.39,556.0781 Q111.7494,556.2344 111.0463,556.2344 Q108.5463,556.2344 107.2181,554.5938 Q105.9056,552.9375 105.9056,549.8125 Q105.9056,546.6875 107.2181,545.0313 Q108.5463,543.375 111.0463,543.375 Q111.7494,543.375 112.39,543.5313 Q113.0463,543.6875 113.6088,543.9844 L113.6088,546.7031 Q112.9838,546.125 112.39,545.8594 Q111.7963,545.5781 111.1713,545.5781 Q109.8275,545.5781 109.14,546.6563 Q108.4525,547.7188 108.4525,549.8125 Q108.4525,551.9063 109.14,552.9844 Q109.8275,554.0469 111.1713,554.0469 Q111.7963,554.0469 112.39,553.7813 Q112.9838,553.5 113.6088,552.9219 L113.6088,555.6406 Z " fill="#000000"/><text fill="#000000" font-family="sans-serif" font-size="14" lengthAdjust="spacing" textLength="130.6553" x="124.64" y="554.8467">PasarelaPagoMock</text><line style="stroke:#181818;stroke-width:0.5;" x1="96.64" x2="257.2953" y1="566" y2="566"/><line style="stroke:#181818;stroke-width:0.5;" x1="96.64" x2="257.2953" y1="574" y2="574"/></g><!--class Transaccion--><g class="entity" data-entity="Transaccion" data-source-line="69" data-uid="ent0049" id="entity_Transaccion"><rect fill="#F1F1F1" height="48" rx="2.5" ry="2.5" style="stroke:#181818;stroke-width:0.5;" width="116.3555" x="1932.14" y="288"/><ellipse cx="1947.14" cy="304" fill="#A9DCDF" rx="11" ry="11" style="stroke:#181818;stroke-width:1;"/><path d="M1947.2494,299.3438 L1946.0931,304.4219 L1948.4213,304.4219 L1947.2494,299.3438 Z M1945.765,297.1094 L1948.7494,297.1094 L1952.1088,309.5 L1949.6556,309.5 L1948.89,306.4375 L1945.6088,306.4375 L1944.8588,309.5 L1942.4213,309.5 L1945.765,297.1094 Z " fill="#000000"/><text fill="#000000" font-family="sans-serif" font-size="14" font-style="italic" lengthAdjust="spacing" textLength="84.3555" x="1961.14" y="308.8467">Transaccion</text><line style="stroke:#181818;stroke-width:0.5;" x1="1933.14" x2="2047.4955" y1="320" y2="320"/><line style="stroke:#181818;stroke-width:0.5;" x1="1933.14" x2="2047.4955" y1="328" y2="328"/></g><!--class TransaccionCompra--><g class="entity" data-entity="TransaccionCompra" data-source-line="70" data-uid="ent0050" id="entity_TransaccionCompra"><rect fill="#F1F1F1" height="48" rx="2.5" ry="2.5" style="stroke:#181818;stroke-width:0.5;" width="171.5557" x="1587.14" y="411"/><ellipse cx="1602.14" cy="427" fill="#ADD1B2" rx="11" ry="11" style="stroke:#181818;stroke-width:1;"/><path d="M1605.1088,432.6406 Q1604.5306,432.9375 1603.89,433.0781 Q1603.2494,433.2344 1602.5463,433.2344 Q1600.0463,433.2344 1598.7181,431.5938 Q1597.4056,429.9375 1597.4056,426.8125 Q1597.4056,423.6875 1598.7181,422.0313 Q1600.0463,420.375 1602.5463,420.375 Q1603.2494,420.375 1603.89,420.5313 Q1604.5463,420.6875 1605.1088,420.9844 L1605.1088,423.7031 Q1604.4838,423.125 1603.89,422.8594 Q1603.2963,422.5781 1602.6713,422.5781 Q1601.3275,422.5781 1600.64,423.6563 Q1599.9525,424.7188 1599.9525,426.8125 Q1599.9525,428.9063 1600.64,429.9844 Q1601.3275,431.0469 1602.6713,431.0469 Q1603.2963,431.0469 1603.89,430.7813 Q1604.4838,430.5 1605.1088,429.9219 L1605.1088,432.6406 Z " fill="#000000"/><text fill="#000000" font-family="sans-serif" font-size="14" lengthAdjust="spacing" textLength="139.5557" x="1616.14" y="431.8467">TransaccionCompra</text><line style="stroke:#181818;stroke-width:0.5;" x1="1588.14" x2="1757.6957" y1="443" y2="443"/><line style="stroke:#181818;stroke-width:0.5;" x1="1588.14" x2="1757.6957" y1="451" y2="451"/></g><!--class TransaccionCashout--><g class="entity" data-entity="TransaccionCashout" data-source-line="71" data-uid="ent0051" id="entity_TransaccionCashout"><rect fill="#F1F1F1" height="48" rx="2.5" ry="2.5" style="stroke:#181818;stroke-width:0.5;" width="173.8047" x="1794.14" y="411"/><ellipse cx="1809.14" cy="427" fill="#ADD1B2" rx="11" ry="11" style="stroke:#181818;stroke-width:1;"/><path d="M1812.1088,432.6406 Q1811.5306,432.9375 1810.89,433.0781 Q1810.2494,433.2344 1809.5463,433.2344 Q1807.0463,433.2344 1805.7181,431.5938 Q1804.4056,429.9375 1804.4056,426.8125 Q1804.4056,423.6875 1805.7181,422.0313 Q1807.0463,420.375 1809.5463,420.375 Q1810.2494,420.375 1810.89,420.5313 Q1811.5463,420.6875 1812.1088,420.9844 L1812.1088,423.7031 Q1811.4838,423.125 1810.89,422.8594 Q1810.2963,422.5781 1809.6713,422.5781 Q1808.3275,422.5781 1807.64,423.6563 Q1806.9525,424.7188 1806.9525,426.8125 Q1806.9525,428.9063 1807.64,429.9844 Q1808.3275,431.0469 1809.6713,431.0469 Q1810.2963,431.0469 1810.89,430.7813 Q1811.4838,430.5 1812.1088,429.9219 L1812.1088,432.6406 Z " fill="#000000"/><text fill="#000000" font-family="sans-serif" font-size="14" lengthAdjust="spacing" textLength="141.8047" x="1823.14" y="431.8467">TransaccionCashout</text><line style="stroke:#181818;stroke-width:0.5;" x1="1795.14" x2="1966.9447" y1="443" y2="443"/><line style="stroke:#181818;stroke-width:0.5;" x1="1795.14" x2="1966.9447" y1="451" y2="451"/></g><!--class TransaccionReembolso--><g class="entity" data-entity="TransaccionReembolso" data-source-line="72" data-uid="ent0052" id="entity_TransaccionReembolso"><rect fill="#F1F1F1" height="48" rx="2.5" ry="2.5" style="stroke:#181818;stroke-width:0.5;" width="194.1484" x="2003.14" y="411"/><ellipse cx="2018.14" cy="427" fill="#ADD1B2" rx="11" ry="11" style="stroke:#181818;stroke-width:1;"/><path d="M2021.1088,432.6406 Q2020.5306,432.9375 2019.89,433.0781 Q2019.2494,433.2344 2018.5463,433.2344 Q2016.0463,433.2344 2014.7181,431.5938 Q2013.4056,429.9375 2013.4056,426.8125 Q2013.4056,423.6875 2014.7181,422.0313 Q2016.0463,420.375 2018.5463,420.375 Q2019.2494,420.375 2019.89,420.5313 Q2020.5463,420.6875 2021.1088,420.9844 L2021.1088,423.7031 Q2020.4838,423.125 2019.89,422.8594 Q2019.2963,422.5781 2018.6713,422.5781 Q2017.3275,422.5781 2016.64,423.6563 Q2015.9525,424.7188 2015.9525,426.8125 Q2015.9525,428.9063 2016.64,429.9844 Q2017.3275,431.0469 2018.6713,431.0469 Q2019.2963,431.0469 2019.89,430.7813 Q2020.4838,430.5 2021.1088,429.9219 L2021.1088,432.6406 Z " fill="#000000"/><text fill="#000000" font-family="sans-serif" font-size="14" lengthAdjust="spacing" textLength="162.1484" x="2032.14" y="431.8467">TransaccionReembolso</text><line style="stroke:#181818;stroke-width:0.5;" x1="2004.14" x2="2196.2884" y1="443" y2="443"/><line style="stroke:#181818;stroke-width:0.5;" x1="2004.14" x2="2196.2884" y1="451" y2="451"/></g><!--class TransaccionTransferencia--><g class="entity" data-entity="TransaccionTransferencia" data-source-line="73" data-uid="ent0053" id="entity_TransaccionTransferencia"><rect fill="#F1F1F1" height="48" rx="2.5" ry="2.5" style="stroke:#181818;stroke-width:0.5;" width="212.3594" x="2232.14" y="411"/><ellipse cx="2247.14" cy="427" fill="#ADD1B2" rx="11" ry="11" style="stroke:#181818;stroke-width:1;"/><path d="M2250.1088,432.6406 Q2249.5306,432.9375 2248.89,433.0781 Q2248.2494,433.2344 2247.5463,433.2344 Q2245.0463,433.2344 2243.7181,431.5938 Q2242.4056,429.9375 2242.4056,426.8125 Q2242.4056,423.6875 2243.7181,422.0313 Q2245.0463,420.375 2247.5463,420.375 Q2248.2494,420.375 2248.89,420.5313 Q2249.5463,420.6875 2250.1088,420.9844 L2250.1088,423.7031 Q2249.4838,423.125 2248.89,422.8594 Q2248.2963,422.5781 2247.6713,422.5781 Q2246.3275,422.5781 2245.64,423.6563 Q2244.9525,424.7188 2244.9525,426.8125 Q2244.9525,428.9063 2245.64,429.9844 Q2246.3275,431.0469 2247.6713,431.0469 Q2248.2963,431.0469 2248.89,430.7813 Q2249.4838,430.5 2250.1088,429.9219 L2250.1088,432.6406 Z " fill="#000000"/><text fill="#000000" font-family="sans-serif" font-size="14" lengthAdjust="spacing" textLength="180.3594" x="2261.14" y="431.8467">TransaccionTransferencia</text><line style="stroke:#181818;stroke-width:0.5;" x1="2233.14" x2="2443.4994" y1="443" y2="443"/><line style="stroke:#181818;stroke-width:0.5;" x1="2233.14" x2="2443.4994" y1="451" y2="451"/></g><!--class TiqueteQRGenerator--><g class="entity" data-entity="TiqueteQRGenerator" data-source-line="87" data-uid="ent0063" id="entity_TiqueteQRGenerator"><rect fill="#F1F1F1" height="48" rx="2.5" ry="2.5" style="stroke:#181818;stroke-width:0.5;" width="176.7578" x="2621.64" y="288"/><ellipse cx="2636.64" cy="304" fill="#ADD1B2" rx="11" ry="11" style="stroke:#181818;stroke-width:1;"/><path d="M2639.6088,309.6406 Q2639.0306,309.9375 2638.39,310.0781 Q2637.7494,310.2344 2637.0463,310.2344 Q2634.5463,310.2344 2633.2181,308.5938 Q2631.9056,306.9375 2631.9056,303.8125 Q2631.9056,300.6875 2633.2181,299.0313 Q2634.5463,297.375 2637.0463,297.375 Q2637.7494,297.375 2638.39,297.5313 Q2639.0463,297.6875 2639.6088,297.9844 L2639.6088,300.7031 Q2638.9838,300.125 2638.39,299.8594 Q2637.7963,299.5781 2637.1713,299.5781 Q2635.8275,299.5781 2635.14,300.6563 Q2634.4525,301.7188 2634.4525,303.8125 Q2634.4525,305.9063 2635.14,306.9844 Q2635.8275,308.0469 2637.1713,308.0469 Q2637.7963,308.0469 2638.39,307.7813 Q2638.9838,307.5 2639.6088,306.9219 L2639.6088,309.6406 Z " fill="#000000"/><text fill="#000000" font-family="sans-serif" font-size="14" lengthAdjust="spacing" textLength="144.7578" x="2650.64" y="308.8467">TiqueteQRGenerator</text><line style="stroke:#181818;stroke-width:0.5;" x1="2622.64" x2="2797.3978" y1="320" y2="320"/><line style="stroke:#181818;stroke-width:0.5;" x1="2622.64" x2="2797.3978" y1="328" y2="328"/></g><!--class QRException--><g class="entity" data-entity="QRException" data-source-line="88" data-uid="ent0064" id="entity_QRException"><rect fill="#F1F1F1" height="48" rx="2.5" ry="2.5" style="stroke:#181818;stroke-width:0.5;" width="121.8926" x="2649.14" y="411"/><ellipse cx="2664.14" cy="427" fill="#ADD1B2" rx="11" ry="11" style="stroke:#181818;stroke-width:1;"/><path d="M2667.1088,432.6406 Q2666.5306,432.9375 2665.89,433.0781 Q2665.2494,433.2344 2664.5463,433.2344 Q2662.0463,433.2344 2660.7181,431.5938 Q2659.4056,429.9375 2659.4056,426.8125 Q2659.4056,423.6875 2660.7181,422.0313 Q2662.0463,420.375 2664.5463,420.375 Q2665.2494,420.375 2665.89,420.5313 Q2666.5463,420.6875 2667.1088,420.9844 L2667.1088,423.7031 Q2666.4838,423.125 2665.89,422.8594 Q2665.2963,422.5781 2664.6713,422.5781 Q2663.3275,422.5781 2662.64,423.6563 Q2661.9525,424.7188 2661.9525,426.8125 Q2661.9525,428.9063 2662.64,429.9844 Q2663.3275,431.0469 2664.6713,431.0469 Q2665.2963,431.0469 2665.89,430.7813 Q2666.4838,430.5 2667.1088,429.9219 L2667.1088,432.6406 Z " fill="#000000"/><text fill="#000000" font-family="sans-serif" font-size="14" lengthAdjust="spacing" textLength="89.8926" x="2678.14" y="431.8467">QRException</text><line style="stroke:#181818;stroke-width:0.5;" x1="2650.14" x2="2770.0326" y1="443" y2="443"/><line style="stroke:#181818;stroke-width:0.5;" x1="2650.14" x2="2770.0326" y1="451" y2="451"/></g><!--class Database--><g class="entity" data-entity="Database" data-source-line="95" data-uid="ent0068" id="entity_Database"><rect fill="#F1F1F1" height="48" rx="2.5" ry="2.5" style="stroke:#181818;stroke-width:0.5;" width="98.8008" x="548.64" y="165"/><ellipse cx="563.64" cy="181" fill="#ADD1B2" rx="11" ry="11" style="stroke:#181818;stroke-width:1;"/><path d="M566.6088,186.6406 Q566.0306,186.9375 565.39,187.0781 Q564.7494,187.2344 564.0463,187.2344 Q561.5463,187.2344 560.2181,185.5938 Q558.9056,183.9375 558.9056,180.8125 Q558.9056,177.6875 560.2181,176.0313 Q561.5463,174.375 564.0463,174.375 Q564.7494,174.375 565.39,174.5313 Q566.0463,174.6875 566.6088,174.9844 L566.6088,177.7031 Q565.9838,177.125 565.39,176.8594 Q564.7963,176.5781 564.1713,176.5781 Q562.8275,176.5781 562.14,177.6563 Q561.4525,178.7188 561.4525,180.8125 Q561.4525,182.9063 562.14,183.9844 Q562.8275,185.0469 564.1713,185.0469 Q564.7963,185.0469 565.39,184.7813 Q565.9838,184.5 566.6088,183.9219 L566.6088,186.6406 Z " fill="#000000"/><text fill="#000000" font-family="sans-serif" font-size="14" lengthAdjust="spacing" textLength="66.8008" x="577.64" y="185.8467">Database</text><line style="stroke:#181818;stroke-width:0.5;" x1="549.64" x2="646.4408" y1="197" y2="197"/><line style="stroke:#181818;stroke-width:0.5;" x1="549.64" x2="646.4408" y1="205" y2="205"/></g><!--class JsonStore--><g class="entity" data-entity="JsonStore" data-source-line="96" data-uid="ent0069" id="entity_JsonStore"><rect fill="#F1F1F1" height="48" rx="2.5" ry="2.5" style="stroke:#181818;stroke-width:0.5;" width="98.1719" x="645.14" y="42"/><ellipse cx="660.14" cy="58" fill="#ADD1B2" rx="11" ry="11" style="stroke:#181818;stroke-width:1;"/><path d="M663.1088,63.6406 Q662.5306,63.9375 661.89,64.0781 Q661.2494,64.2344 660.5463,64.2344 Q658.0463,64.2344 656.7181,62.5938 Q655.4056,60.9375 655.4056,57.8125 Q655.4056,54.6875 656.7181,53.0313 Q658.0463,51.375 660.5463,51.375 Q661.2494,51.375 661.89,51.5313 Q662.5463,51.6875 663.1088,51.9844 L663.1088,54.7031 Q662.4838,54.125 661.89,53.8594 Q661.2963,53.5781 660.6713,53.5781 Q659.3275,53.5781 658.64,54.6563 Q657.9525,55.7188 657.9525,57.8125 Q657.9525,59.9063 658.64,60.9844 Q659.3275,62.0469 660.6713,62.0469 Q661.2963,62.0469 661.89,61.7813 Q662.4838,61.5 663.1088,60.9219 L663.1088,63.6406 Z " fill="#000000"/><text fill="#000000" font-family="sans-serif" font-size="14" lengthAdjust="spacing" textLength="66.1719" x="674.14" y="62.8467">JsonStore</text><line style="stroke:#181818;stroke-width:0.5;" x1="646.14" x2="742.3119" y1="74" y2="74"/><line style="stroke:#181818;stroke-width:0.5;" x1="646.14" x2="742.3119" y1="82" y2="82"/></g><!--class MarketplaceStore--><g class="entity" data-entity="MarketplaceStore" data-source-line="97" data-uid="ent0070" id="entity_MarketplaceStore"><rect fill="#F1F1F1" height="48" rx="2.5" ry="2.5" style="stroke:#181818;stroke-width:0.5;" width="155.6006" x="454.14" y="42"/><ellipse cx="469.14" cy="58" fill="#ADD1B2" rx="11" ry="11" style="stroke:#181818;stroke-width:1;"/><path d="M472.1088,63.6406 Q471.5306,63.9375 470.89,64.0781 Q470.2494,64.2344 469.5463,64.2344 Q467.0463,64.2344 465.7181,62.5938 Q464.4056,60.9375 464.4056,57.8125 Q464.4056,54.6875 465.7181,53.0313 Q467.0463,51.375 469.5463,51.375 Q470.2494,51.375 470.89,51.5313 Q471.5463,51.6875 472.1088,51.9844 L472.1088,54.7031 Q471.4838,54.125 470.89,53.8594 Q470.2963,53.5781 469.6713,53.5781 Q468.3275,53.5781 467.64,54.6563 Q466.9525,55.7188 466.9525,57.8125 Q466.9525,59.9063 467.64,60.9844 Q468.3275,62.0469 469.6713,62.0469 Q470.2963,62.0469 470.89,61.7813 Q471.4838,61.5 472.1088,60.9219 L472.1088,63.6406 Z " fill="#000000"/><text fill="#000000" font-family="sans-serif" font-size="14" lengthAdjust="spacing" textLength="123.6006" x="483.14" y="62.8467">MarketplaceStore</text><line style="stroke:#181818;stroke-width:0.5;" x1="455.14" x2="608.7406" y1="74" y2="74"/><line style="stroke:#181818;stroke-width:0.5;" x1="455.14" x2="608.7406" y1="82" y2="82"/></g><!--reverse link Usuario to Administrador--><g class="link" data-entity-1="Usuario" data-entity-2="Administrador" data-source-line="13" data-uid="lnk9" id="link_Usuario_Administrador"><path codeLine="13" d="M2197.14,600 C2197.14,617.66 2197.14,623.94 2197.14,641.68" fill="none" id="Usuario-backto-Administrador" style="stroke:#181818;stroke-width:1;"/><polygon fill="none" points="2197.14,582,2191.14,600,2203.14,600,2197.14,582" style="stroke:#181818;stroke-width:1;"/></g><!--reverse link Usuario to Cliente--><g class="link" data-entity-1="Usuario" data-entity-2="Cliente" data-source-line="14" data-uid="lnk10" id="link_Usuario_Cliente"><path codeLine="14" d="M2242.1175,592.8167 C2265.6075,610.4767 2283.52,623.94 2307.12,641.68" fill="none" id="Usuario-backto-Cliente" style="stroke:#181818;stroke-width:1;"/><polygon fill="none" points="2227.73,582,2238.5119,597.6125,2245.723,588.0208,2227.73,582" style="stroke:#181818;stroke-width:1;"/></g><!--reverse link Usuario to Organizador--><g class="link" data-entity-1="Usuario" data-entity-2="Organizador" data-source-line="15" data-uid="lnk11" id="link_Usuario_Organizador"><path codeLine="15" d="M2147.4155,591.9431 C2120.6755,609.6631 2098.86,624.11 2072.07,641.86" fill="none" id="Usuario-backto-Organizador" style="stroke:#181818;stroke-width:1;"/><polygon fill="none" points="2162.42,582,2144.1012,586.9416,2150.7299,596.9446,2162.42,582" style="stroke:#181818;stroke-width:1;"/></g><!--reverse link Venue to Evento--><g class="link" data-entity-1="Venue" data-entity-2="Evento" data-source-line="26" data-uid="lnk18" id="link_Venue_Evento"><path codeLine="26" d="M433.8936,467.0075 C443.5936,475.4675 446.27,476.63 458.14,483 C524.59,518.66 610.69,539.7 660.54,549.74" fill="none" id="Venue-backto-Evento" style="stroke:#181818;stroke-width:1;"/><polygon fill="none" points="424.85,459.12,426.7426,466.0783,433.8936,467.0075,432.001,460.0492,424.85,459.12" style="stroke:#181818;stroke-width:1;"/><text fill="#000000" font-family="sans-serif" font-size="13" lengthAdjust="spacing" textLength="8.271" x="421.7422" y="478.9105">1</text><text fill="#000000" font-family="sans-serif" font-size="13" lengthAdjust="spacing" textLength="6.5" x="646.0378" y="543.7172">*</text></g><!--reverse link Evento to Localidad--><g class="link" data-entity-1="Evento" data-entity-2="Localidad" data-source-line="27" data-uid="lnk19" id="link_Evento_Localidad"><path codeLine="27" d="M700.479,593.9978 C700.139,611.6578 699.91,623.94 699.58,641.68" fill="none" id="Evento-backto-Localidad" style="stroke:#181818;stroke-width:1;"/><polygon fill="none" points="700.71,582,696.5952,587.9219,700.479,593.9978,704.5938,588.0759,700.71,582" style="stroke:#181818;stroke-width:1;"/><text fill="#000000" font-family="sans-serif" font-size="13" lengthAdjust="spacing" textLength="8.271" x="691.6516" y="602.1558">1</text><text fill="#000000" font-family="sans-serif" font-size="13" lengthAdjust="spacing" textLength="6.5" x="693.0445" y="631.007">*</text></g><!--reverse link Tiquete to TiqueteSimple--><g class="link" data-entity-1="Tiquete" data-entity-2="TiqueteSimple" data-source-line="38" data-uid="lnk27" id="link_Tiquete_TiqueteSimple"><path codeLine="38" d="M1168.7717,456.2647 C1201.7717,467.0347 1231.77,475.45 1274.14,483 C1320.65,491.29 1336.1,473.89 1380.14,491 C1404,500.27 1426.54,518.73 1442.26,533.77" fill="none" id="Tiquete-backto-TiqueteSimple" style="stroke:#181818;stroke-width:1;"/><polygon fill="none" points="1151.66,450.68,1166.9102,461.9686,1170.6333,450.5607,1151.66,450.68" style="stroke:#181818;stroke-width:1;"/></g><!--reverse link Tiquete to TiqueteMultiple--><g class="link" data-entity-1="Tiquete" data-entity-2="TiqueteMultiple" data-source-line="39" data-uid="lnk28" id="link_Tiquete_TiqueteMultiple"><path codeLine="39" d="M1050.7439,467.851 C1033.8739,477.321 1030.18,479.86 1013.14,491 C992.69,504.37 970.63,520.72 953.59,533.8" fill="none" id="Tiquete-backto-TiqueteMultiple" style="stroke:#181818;stroke-width:1;"/><polygon fill="none" points="1066.44,459.04,1047.8069,462.619,1053.6809,473.083,1066.44,459.04" style="stroke:#181818;stroke-width:1;"/></g><!--reverse link Tiquete to TiqueteNumerado--><g class="link" data-entity-1="Tiquete" data-entity-2="TiqueteNumerado" data-source-line="40" data-uid="lnk29" id="link_Tiquete_TiqueteNumerado"><path codeLine="40" d="M1109.14,477.04 C1109.14,498.44 1109.14,512.13 1109.14,533.63" fill="none" id="Tiquete-backto-TiqueteNumerado" style="stroke:#181818;stroke-width:1;"/><polygon fill="none" points="1109.14,459.04,1103.14,477.04,1115.14,477.04,1109.14,459.04" style="stroke:#181818;stroke-width:1;"/></g><!--reverse link Tiquete to PaqueteDeluxe--><g class="link" data-entity-1="Tiquete" data-entity-2="PaqueteDeluxe" data-source-line="41" data-uid="lnk30" id="link_Tiquete_PaqueteDeluxe"><path codeLine="41" d="M1167.64,467.3443 C1184.81,476.8443 1188.84,479.61 1206.14,491 C1226.25,504.24 1247.82,520.59 1264.45,533.7" fill="none" id="Tiquete-backto-PaqueteDeluxe" style="stroke:#181818;stroke-width:1;"/><polygon fill="none" points="1151.89,458.63,1164.7352,472.5943,1170.5447,462.0943,1151.89,458.63" style="stroke:#181818;stroke-width:1;"/></g><!--link Tiquete to Usuario--><g class="link" data-entity-1="Tiquete" data-entity-2="Usuario" data-source-line="43" data-uid="lnk31" id="link_Tiquete_Usuario"><path codeLine="43" d="M1151.91,451.35 C1184.84,462.39 1231.75,476.45 1274.14,483 C1334.12,492.27 1486.58,487.04 1547.14,491 C1776.91,506.01 2045.0459,537.9789 2148.6859,550.8789" fill="none" id="Tiquete-to-Usuario" style="stroke:#181818;stroke-width:1;"/><polygon fill="#181818" points="2154.64,551.62,2146.203,546.539,2149.6783,551.0024,2145.2149,554.4777,2154.64,551.62" style="stroke:#181818;stroke-width:1;"/></g><!--link Tiquete to Evento--><g class="link" data-entity-1="Tiquete" data-entity-2="Evento" data-source-line="44" data-uid="lnk32" id="link_Tiquete_Evento"><path codeLine="44" d="M1066.5,443.52 C1011.66,453.12 913.42,470.01 829.14,483 C803.86,486.9 795.24,480.01 772.14,491 C751.32,500.91 736.418,514.6095 723.378,529.3995" fill="none" id="Tiquete-to-Evento" style="stroke:#181818;stroke-width:1;"/><polygon fill="#181818" points="719.41,533.9,728.3624,529.7945,722.7167,530.1496,722.3617,524.5038,719.41,533.9" style="stroke:#181818;stroke-width:1;"/></g><!--link Tiquete to Localidad--><g class="link" data-entity-1="Tiquete" data-entity-2="Localidad" data-source-line="45" data-uid="lnk33" id="link_Tiquete_Localidad"><path codeLine="45" d="M1066.64,440.57 C999.67,448.43 873.36,466.09 836.14,491 C785.02,525.21 798.38,558.64 759.14,606 C748.7,618.6 740.2671,627.345 729.1871,637.835" fill="none" id="Tiquete-to-Localidad" style="stroke:#181818;stroke-width:1;"/><polygon fill="#181818" points="724.83,641.96,734.1156,638.6771,728.4609,638.5225,728.6156,632.8677,724.83,641.96" style="stroke:#181818;stroke-width:1;"/></g><!--link Oferta to Tiquete--><g class="link" data-entity-1="Oferta" data-entity-2="Tiquete" data-source-line="54" data-uid="lnk39" id="link_Oferta_Tiquete"><path codeLine="54" d="M355.32,316.81 C432.8,324.73 613.99,344.25 765.14,368 C874.18,385.13 995.6493,409.9112 1060.5293,423.6012" fill="none" id="Oferta-to-Tiquete" style="stroke:#181818;stroke-width:1;"/><polygon fill="#181818" points="1066.4,424.84,1058.4197,419.068,1061.5077,423.8077,1056.7681,426.8957,1066.4,424.84" style="stroke:#181818;stroke-width:1;"/></g><!--link Oferta to Evento--><g class="link" data-entity-1="Oferta" data-entity-2="Evento" data-source-line="55" data-uid="lnk40" id="link_Oferta_Evento"><path codeLine="55" d="M313.53,336.06 C309.26,372.45 306.94,443.17 345.14,483 C388.29,527.99 570.7685,547.1386 654.6485,553.7486" fill="none" id="Oferta-to-Evento" style="stroke:#181818;stroke-width:1;"/><polygon fill="#181818" points="660.63,554.22,651.9721,549.5253,655.6455,553.8272,651.3436,557.5006,660.63,554.22" style="stroke:#181818;stroke-width:1;"/></g><!--link Oferta to Localidad--><g class="link" data-entity-1="Oferta" data-entity-2="Localidad" data-source-line="56" data-uid="lnk41" id="link_Oferta_Localidad"><path codeLine="56" d="M296.68,336.23 C287.17,345.37 275.11,354.89 262.14,360 C243.2,367.46 93.21,353.3 79.14,368 C6,444.41 7.97,527.74 79.14,606 C117.29,647.95 503.1416,660.6202 643.4816,663.8902" fill="none" id="Oferta-to-Localidad" style="stroke:#181818;stroke-width:1;"/><polygon fill="#181818" points="649.48,664.03,640.5756,659.8214,644.4814,663.9135,640.3893,667.8193,649.48,664.03" style="stroke:#181818;stroke-width:1;"/></g><!--link Contraoferta to Oferta--><g class="link" data-entity-1="Contraoferta" data-entity-2="Oferta" data-source-line="57" data-uid="lnk42" id="link_Contraoferta_Oferta"><path codeLine="57" d="M333.33,213.04 C329.79,234.44 325.5401,260.2106 321.9801,281.7106" fill="none" id="Contraoferta-to-Oferta" style="stroke:#181818;stroke-width:1;"/><polygon fill="#181818" points="321,287.63,326.4165,279.4043,321.8168,282.6972,318.5239,278.0975,321,287.63" style="stroke:#181818;stroke-width:1;"/></g><!--link LogRegistro to Marketplace--><g class="link" data-entity-1="LogRegistro" data-entity-2="Marketplace" data-source-line="58" data-uid="lnk43" id="link_LogRegistro_Marketplace"><path codeLine="58" d="M184.33,213.04 C184.51,234.44 184.7198,260.1302 184.8998,281.6302" fill="none" id="LogRegistro-to-Marketplace" style="stroke:#181818;stroke-width:1;"/><polygon fill="#181818" points="184.95,287.63,188.8745,278.5968,184.9081,282.6302,180.8748,278.6638,184.95,287.63" style="stroke:#181818;stroke-width:1;"/></g><!--reverse link PasarelaPago to PasarelaPagoMock--><g class="link" data-entity-1="PasarelaPago" data-entity-2="PasarelaPagoMock" data-source-line="65" data-uid="lnk47" id="link_PasarelaPago_PasarelaPagoMock"><path codeLine="65" d="M182.4282,477.0005 C181.0082,498.4005 180.11,512.13 178.69,533.63" fill="none" id="PasarelaPago-backto-PasarelaPagoMock" style="stroke:#181818;stroke-width:1;stroke-dasharray:7,7;"/><polygon fill="none" points="183.62,459.04,176.4414,476.6032,188.4151,477.3978,183.62,459.04" style="stroke:#181818;stroke-width:1;"/></g><!--reverse link Transaccion to TransaccionCompra--><g class="link" data-entity-1="Transaccion" data-entity-2="TransaccionCompra" data-source-line="75" data-uid="lnk54" id="link_Transaccion_TransaccionCompra"><path codeLine="75" d="M1914.3624,326.3944 C1870.6024,335.0544 1827.42,346.2 1777.14,368 C1751.05,379.31 1723.99,396.69 1704.02,410.77" fill="none" id="Transaccion-backto-TransaccionCompra" style="stroke:#181818;stroke-width:1;"/><polygon fill="none" points="1932.02,322.9,1913.1976,320.5085,1915.5272,332.2802,1932.02,322.9" style="stroke:#181818;stroke-width:1;"/></g><!--reverse link Transaccion to TransaccionCashout--><g class="link" data-entity-1="Transaccion" data-entity-2="TransaccionCashout" data-source-line="76" data-uid="lnk55" id="link_Transaccion_TransaccionCashout"><path codeLine="76" d="M1957.3352,349.4162 C1938.0652,370.8162 1921.56,389.13 1902.19,410.63" fill="none" id="Transaccion-backto-TransaccionCashout" style="stroke:#181818;stroke-width:1;"/><polygon fill="none" points="1969.38,336.04,1952.8765,345.4012,1961.7939,353.4311,1969.38,336.04" style="stroke:#181818;stroke-width:1;"/></g><!--reverse link Transaccion to TransaccionReembolso--><g class="link" data-entity-1="Transaccion" data-entity-2="TransaccionReembolso" data-source-line="77" data-uid="lnk56" id="link_Transaccion_TransaccionReembolso"><path codeLine="77" d="M2023.1966,349.3603 C2042.6466,370.7603 2059.35,389.13 2078.89,410.63" fill="none" id="Transaccion-backto-TransaccionReembolso" style="stroke:#181818;stroke-width:1;"/><polygon fill="none" points="2011.09,336.04,2018.7565,353.3958,2027.6367,345.3248,2011.09,336.04" style="stroke:#181818;stroke-width:1;"/></g><!--reverse link Transaccion to TransaccionTransferencia--><g class="link" data-entity-1="Transaccion" data-entity-2="TransaccionTransferencia" data-source-line="78" data-uid="lnk57" id="link_Transaccion_TransaccionTransferencia"><path codeLine="78" d="M2065.901,326.4255 C2112.071,335.3755 2160.13,346.91 2215.14,368 C2245.24,379.54 2277.26,396.9 2301.08,410.92" fill="none" id="Transaccion-backto-TransaccionTransferencia" style="stroke:#181818;stroke-width:1;"/><polygon fill="none" points="2048.23,323,2064.7592,332.3159,2067.0429,320.5352,2048.23,323" style="stroke:#181818;stroke-width:1;"/></g><!--link TransaccionCompra to Evento--><g class="link" data-entity-1="TransaccionCompra" data-entity-2="Evento" data-source-line="80" data-uid="lnk58" id="link_TransaccionCompra_Evento"><path codeLine="80" d="M1623.4,459.09 C1600.67,468.45 1573.08,478.17 1547.14,483 C1469.58,497.45 913.93,472.9 837.14,491 C801.25,499.46 768.9717,515.4951 742.4717,530.9651" fill="none" id="TransaccionCompra-to-Evento" style="stroke:#181818;stroke-width:1;"/><polygon fill="#181818" points="737.29,533.99,747.0791,532.9071,741.6081,531.4692,743.0459,525.9982,737.29,533.99" style="stroke:#181818;stroke-width:1;"/></g><!--link TransaccionCompra to Localidad--><g class="link" data-entity-1="TransaccionCompra" data-entity-2="Localidad" data-source-line="81" data-uid="lnk59" id="link_TransaccionCompra_Localidad"><path codeLine="81" d="M1663.74,459.2 C1646.85,497.5 1607.39,572.99 1547.14,606 C1477.13,644.36 925.6684,659.8821 754.7684,663.8121" fill="none" id="TransaccionCompra-to-Localidad" style="stroke:#181818;stroke-width:1;"/><polygon fill="#181818" points="748.77,663.95,757.8596,667.742,753.7687,663.8351,757.6757,659.7441,748.77,663.95" style="stroke:#181818;stroke-width:1;"/></g><!--link TransaccionCompra to TiqueteSimple--><g class="link" data-entity-1="TransaccionCompra" data-entity-2="TiqueteSimple" data-source-line="82" data-uid="lnk60" id="link_TransaccionCompra_TiqueteSimple"><path codeLine="82" d="M1633.34,459.04 C1596.27,480.51 1546.4827,509.334 1509.3427,530.834" fill="none" id="TransaccionCompra-to-TiqueteSimple" style="stroke:#181818;stroke-width:1;"/><polygon fill="#181818" points="1504.15,533.84,1513.943,532.7928,1508.4772,531.335,1509.935,525.8692,1504.15,533.84" style="stroke:#181818;stroke-width:1;"/></g><!--link TransaccionCompra to Usuario--><g class="link" data-entity-1="TransaccionCompra" data-entity-2="Usuario" data-source-line="83" data-uid="lnk61" id="link_TransaccionCompra_Usuario"><path codeLine="83" d="M1717.74,459.12 C1735.79,467.68 1757.07,476.8 1777.14,483 C1911.56,524.5 2071.8314,544.5467 2148.6214,552.4367" fill="none" id="TransaccionCompra-to-Usuario" style="stroke:#181818;stroke-width:1;"/><polygon fill="#181818" points="2154.59,553.05,2146.046,548.1511,2149.6162,552.539,2145.2283,556.1092,2154.59,553.05" style="stroke:#181818;stroke-width:1;"/></g><!--link TiqueteQRGenerator to Tiquete--><g class="link" data-entity-1="TiqueteQRGenerator" data-entity-2="Tiquete" data-source-line="90" data-uid="lnk65" id="link_TiqueteQRGenerator_Tiquete"><path codeLine="90" d="M2621.6,333.65 C2574.03,343.72 2514.21,354.78 2460.14,360 C2394.55,366.33 1338.8,355.32 1274.14,368 C1230.85,376.49 1189.8368,393.4888 1157.3068,409.1388" fill="none" id="TiqueteQRGenerator-to-Tiquete" style="stroke:#181818;stroke-width:1;stroke-dasharray:7,7;"/><polygon fill="#181818" points="1151.9,411.74,1161.7444,411.4428,1156.4057,409.5723,1158.2761,404.2337,1151.9,411.74" style="stroke:#181818;stroke-width:1;"/></g><!--link TiqueteQRGenerator to QRException--><g class="link" data-entity-1="TiqueteQRGenerator" data-entity-2="QRException" data-source-line="91" data-uid="lnk66" id="link_TiqueteQRGenerator_QRException"><path codeLine="91" d="M2710.14,336.04 C2710.14,357.44 2710.14,383.13 2710.14,404.63" fill="none" id="TiqueteQRGenerator-to-QRException" style="stroke:#181818;stroke-width:1;stroke-dasharray:7,7;"/><polygon fill="#181818" points="2710.14,410.63,2714.14,401.63,2710.14,405.63,2706.14,401.63,2710.14,410.63" style="stroke:#181818;stroke-width:1;"/></g><!--link Database to Usuario--><g class="link" data-entity-1="Database" data-entity-2="Usuario" data-source-line="99" data-uid="lnk71" id="link_Database_Usuario"><path codeLine="99" d="M647.66,189.87 C935.75,189.28 2385.56,189.13 2460.14,245 C2545.98,309.31 2566.38,398.64 2500.14,483 C2468.2,523.67 2321.2256,544.2085 2245.6156,552.3385" fill="none" id="Database-to-Usuario" style="stroke:#181818;stroke-width:1;"/><polygon fill="#181818" points="2239.65,552.98,2249.0261,555.9949,2244.6213,552.4455,2248.1708,548.0407,2239.65,552.98" style="stroke:#181818;stroke-width:1;"/></g><!--link Database to Venue--><g class="link" data-entity-1="Database" data-entity-2="Venue" data-source-line="100" data-uid="lnk72" id="link_Database_Venue"><path codeLine="100" d="M579.25,213.4 C541.6,260.03 461.3488,359.4214 423.7388,406.0114" fill="none" id="Database-to-Venue" style="stroke:#181818;stroke-width:1;"/><polygon fill="#181818" points="419.97,410.68,428.7356,406.1896,423.1107,406.7895,422.5107,401.1645,419.97,410.68" style="stroke:#181818;stroke-width:1;"/></g><!--link Database to Evento--><g class="link" data-entity-1="Database" data-entity-2="Evento" data-source-line="101" data-uid="lnk73" id="link_Database_Evento"><path codeLine="101" d="M632.37,213.19 C673.41,243.31 740.05,300.13 767.14,368 C786.09,415.47 794.01,439.52 767.14,483 C762.96,489.76 757.26,485.92 751.14,491 C736.65,503.03 727.1876,515.0109 718.1876,528.7509" fill="none" id="Database-to-Evento" style="stroke:#181818;stroke-width:1;"/><polygon fill="#181818" points="714.9,533.77,723.1775,528.4331,717.6397,529.5874,716.4854,524.0496,714.9,533.77" style="stroke:#181818;stroke-width:1;"/></g><!--link Database to Marketplace--><g class="link" data-entity-1="Database" data-entity-2="Marketplace" data-source-line="104" data-uid="lnk74" id="link_Database_Marketplace"><path codeLine="104" d="M548.32,205.58 C511.61,216.35 460.26,229.97 414.14,237 C380.7,242.1 293.54,232.43 262.14,245 C239.42,254.09 222.7734,268.3925 208.5534,283.5625" fill="none" id="Database-to-Marketplace" style="stroke:#181818;stroke-width:1;"/><polygon fill="#181818" points="204.45,287.94,213.5234,284.1093,207.8695,284.2921,207.6867,278.6382,204.45,287.94" style="stroke:#181818;stroke-width:1;"/></g><!--link JsonStore to Database--><g class="link" data-entity-1="JsonStore" data-entity-2="Database" data-source-line="105" data-uid="lnk75" id="link_JsonStore_Database"><path codeLine="105" d="M675.86,90.04 C658.88,111.44 637.4695,138.4299 620.4095,159.9299" fill="none" id="JsonStore-to-Database" style="stroke:#181818;stroke-width:1;"/><polygon fill="#181818" points="616.68,164.63,625.4076,160.0662,619.7879,160.7132,619.1408,155.0935,616.68,164.63" style="stroke:#181818;stroke-width:1;"/></g><!--link MarketplaceStore to Marketplace--><g class="link" data-entity-1="MarketplaceStore" data-entity-2="Marketplace" data-source-line="106" data-uid="lnk76" id="link_MarketplaceStore_Marketplace"><path codeLine="106" d="M453.86,79.46 C387.3,89.75 289.13,104.21 203.14,114 C192.73,115.19 116.23,114.28 109.14,122 C74.57,159.64 89.27,189.91 109.14,237 C117.73,257.36 130.3089,271.1119 146.1989,283.9919" fill="none" id="MarketplaceStore-to-Marketplace" style="stroke:#181818;stroke-width:1;"/><polygon fill="#181818" points="150.86,287.77,146.3871,278.9954,146.9758,284.6215,141.3496,285.2102,150.86,287.77" style="stroke:#181818;stroke-width:1;"/></g><!--link Marketplace to PasarelaPago--><g class="link" data-entity-1="Marketplace" data-entity-2="PasarelaPago" data-source-line="108" data-uid="lnk77" id="link_Marketplace_PasarelaPago"><path codeLine="108" d="M185.14,336.04 C185.14,357.44 185.14,383.13 185.14,404.63" fill="none" id="Marketplace-to-PasarelaPago" style="stroke:#181818;stroke-width:1;"/><polygon fill="#181818" points="185.14,410.63,189.14,401.63,185.14,405.63,181.14,401.63,185.14,410.63" style="stroke:#181818;stroke-width:1;"/></g><!--link Transaccion to PasarelaPago--><g class="link" data-entity-1="Transaccion" data-entity-2="PasarelaPago" data-source-line="109" data-uid="lnk78" id="link_Transaccion_PasarelaPago"><path codeLine="109" d="M1931.89,314.37 C1648.59,321.1 425.11,351.07 346.14,368 C304.94,376.84 266.2313,393.0273 234.6213,408.3173" fill="none" id="Transaccion-to-PasarelaPago" style="stroke:#181818;stroke-width:1;"/><polygon fill="#181818" points="229.22,410.93,239.0637,410.6119,233.7211,408.7528,235.5802,403.4102,229.22,410.93" style="stroke:#181818;stroke-width:1;"/></g><!--link Transaccion to Usuario--><g class="link" data-entity-1="Transaccion" data-entity-2="Usuario" data-source-line="110" data-uid="lnk79" id="link_Transaccion_Usuario"><path codeLine="110" d="M2048.57,315.54 C2168.83,321.36 2435.05,337.58 2462.14,368 C2496.13,406.18 2493.04,442.29 2462.14,483 C2435.28,518.39 2313.4966,540.5502 2245.6566,550.4902" fill="none" id="Transaccion-to-Usuario" style="stroke:#181818;stroke-width:1;"/><polygon fill="#181818" points="2239.72,551.36,2249.2048,554.013,2244.6672,550.6351,2248.045,546.0975,2239.72,551.36" style="stroke:#181818;stroke-width:1;"/></g><!--link Administracion to Database--><g class="link" data-entity-1="Administracion" data-entity-2="Database" data-source-line="112" data-uid="lnk80" id="link_Administracion_Database"><path codeLine="112" d="M186.73,76.54 C247.18,85.71 337.32,101.23 414.14,122 C460.5,134.53 506.2327,151.1933 542.8727,165.5333" fill="none" id="Administracion-to-Database" style="stroke:#181818;stroke-width:1;"/><polygon fill="#181818" points="548.46,167.72,541.5368,160.715,543.8039,165.8977,538.6212,168.1648,548.46,167.72" style="stroke:#181818;stroke-width:1;"/></g><!--link Administracion to Marketplace--><g class="link" data-entity-1="Administracion" data-entity-2="Marketplace" data-source-line="113" data-uid="lnk81" id="link_Administracion_Marketplace"><path codeLine="113" d="M75.46,90.21 C64.16,98.63 53.39,109.26 47.14,122 C24.64,167.89 20.89,193.14 47.14,237 C64.31,265.69 91.237,281.7537 120.397,292.9237" fill="none" id="Administracion-to-Marketplace" style="stroke:#181818;stroke-width:1;"/><polygon fill="#181818" points="126,295.07,119.0264,288.1153,121.3308,293.2814,116.1647,295.5859,126,295.07" style="stroke:#181818;stroke-width:1;"/></g><!--SRC=[dLPDYzim4BtxLvWS2n7qNWfbDnJAfiqcsrxBn9cu8hRabUIo_VhlbIKbdaba5vfJUE_Dw8qqCuazITM1WRRie3f1ZJltey7IOEL0rGqMHS9BEBHIIUiCL5AhybTH-a_LWBNbEqOLVyQWtlPWfBPC_Zc2sGG7RGX-rqXK3WdooTIWvC-W2t1ALhxvlLncyZ2QfcC4pKhSutSllvX7rRVba-pqAi0ZjhBEHoQKUFtYMUgTn4NWGLVGo0CSObJGbulNYr9xJujN2neHlp9s32UUdNpkqI4p7Gq-HIR0i0-lvP8HIZ5a9zkkoU3hld4ootpiMnokdp0R2CmzDlqBnbAJEDx-xLavcXsP4x2JcM36m7BvzjAaWZOc5QG-4EGvSdJsFLem9tHT0nMo8LYFE6tl8ne7T0AqyW-bh-47NM-n7ZezTLmC37RE7I3egn8-Kqs67OiP1DH6a16Zn4kWQ6Na8ZgeBwCa_HIQut0b6x1Wi86DPrdBZF1QLwTO94NzomfngwEJO41Pg8QLT1c7wxuV9RIJH_HEjvs12GxiDzsxFBb5RFUwiJfFXw_-2b5L4b97ZcngwwoDMHbnDAVZvkQKypwZhSaHcHNo_ifhhpkPReXimCqaatQGwcZWwxDXKvWIFsxVe_BBmx5VdyVjwgN2pWtTGOUUg4iX9WPkGajpqk50O_q4XMjc1k_1mHuitH4Vh5Oxdm_psoHIWJi7JsyvfZW_pVYxbQNJ4m_kYMl1j6Jh2ReFMCIba12IJSO3hgkSFQgO8E9Xmp8IRFcmTI7eKFnNmCrr5_mFbE1_ccQkuDzn4vN-1G00]--></g></svg>